<svg width="156" height="156" viewBox="0 0 156 156" fill="none" xmlns="http://www.w3.org/2000/svg">
<path d="M76.0064 6.20829L76.0064 8.65629L78.8864 8.65624L78.8865 9.77224L76.0065 9.77229L76.0065 12.3283L79.2465 12.3282L79.2465 13.4442L74.6385 13.4443L74.6384 5.09232L79.2464 5.09223L79.2464 6.20823L76.0064 6.20829Z" fill="#1E1E1E"/>
<path d="M86.3103 10.6391L88.0186 14.2243L86.4823 14.034L85.341 11.6315L83.7313 13.6933L82.3142 13.5177L84.8337 10.5529L83.1269 6.95587L84.6631 7.14615L85.8045 9.54865L87.4141 7.48687L88.8313 7.66239L86.3103 10.6391Z" fill="#1E1E1E"/>
<path d="M93.17 9.50047C93.4692 9.26223 93.8381 9.09103 94.2767 8.98688C94.7154 8.88272 95.1791 8.8921 95.6679 9.01503C96.2265 9.15551 96.6995 9.42297 97.087 9.81739C97.4842 10.206 97.7523 10.6818 97.8912 11.2446C98.0301 11.8075 98.0186 12.4109 97.8566 13.0549C97.6947 13.6988 97.4174 14.2436 97.0249 14.6894C96.6343 15.1273 96.1701 15.4313 95.6324 15.6013C95.1044 15.7655 94.5611 15.7773 94.0025 15.6368C93.5137 15.5139 93.1037 15.3077 92.7723 15.0181C92.4428 14.7208 92.1949 14.3944 92.0286 14.0391L91.0276 18.0192L89.7009 17.6855L92.0804 8.22417L93.4071 8.55782L93.17 9.50047ZM96.5067 12.7154C96.6179 12.2731 96.6204 11.8696 96.5142 11.5046C96.4177 11.1339 96.2387 10.829 95.9771 10.59C95.7252 10.3452 95.4285 10.1798 95.0872 10.094C94.7536 10.0101 94.414 10.0154 94.0685 10.11C93.7308 10.2065 93.4278 10.3943 93.1597 10.6734C92.8993 10.9543 92.7135 11.3159 92.6022 11.7582C92.491 12.2004 92.4827 12.6107 92.5772 12.9892C92.6815 13.3619 92.8595 13.6707 93.1114 13.9155C93.3711 14.1623 93.6677 14.3276 94.0013 14.4115C94.3427 14.4974 94.6823 14.492 95.02 14.3955C95.3675 14.2932 95.6724 14.0976 95.9347 13.8089C96.2048 13.5221 96.3955 13.1576 96.5067 12.7154Z" fill="#1E1E1E"/>
<path d="M104.962 9.79683L101.755 18.0772L100.479 17.583L103.687 9.30264L104.962 9.79683Z" fill="#1E1E1E"/>
<path d="M108.001 21.1044C107.452 20.8092 107.021 20.419 106.709 19.9339C106.402 19.4417 106.242 18.902 106.23 18.3147C106.223 17.7203 106.38 17.1235 106.701 16.5245C107.019 15.9324 107.432 15.4773 107.938 15.1592C108.445 14.8411 108.99 14.6799 109.574 14.6754C110.157 14.6709 110.728 14.8182 111.284 15.1172C111.841 15.4162 112.279 15.8101 112.597 16.299C112.916 16.7879 113.083 17.3315 113.098 17.9296C113.112 18.5278 112.961 19.1229 112.643 19.7149C112.325 20.307 111.909 20.7602 111.395 21.0745C110.881 21.3888 110.324 21.5479 109.722 21.5519C109.132 21.5525 108.558 21.4034 108.001 21.1044ZM108.563 20.0577C108.873 20.2243 109.202 20.3054 109.549 20.3012C109.904 20.3008 110.245 20.198 110.573 19.9928C110.901 19.7877 111.179 19.4736 111.406 19.0507C111.633 18.6278 111.743 18.2284 111.736 17.8524C111.733 17.4693 111.637 17.1318 111.449 16.84C111.261 16.5482 111.011 16.319 110.701 16.1525C110.391 15.986 110.062 15.9048 109.715 15.909C109.375 15.917 109.048 16.0273 108.734 16.2401C108.423 16.4458 108.155 16.7601 107.928 17.183C107.591 17.8103 107.488 18.3817 107.62 18.8974C107.763 19.4098 108.077 19.7966 108.563 20.0577Z" fill="#1E1E1E"/>
<path d="M118.082 20.5529C118.44 20.3942 118.805 20.3346 119.179 20.3739C119.564 20.4113 119.943 20.5618 120.315 20.8252L119.497 21.981L119.213 21.7799C118.776 21.4702 118.364 21.3455 117.978 21.4057C117.599 21.4706 117.216 21.7772 116.827 22.3257L114.817 25.1661L113.7 24.3757L117.52 18.979L118.637 19.7694L118.082 20.5529Z" fill="#1E1E1E"/>
<path d="M126.085 30.0466C125.918 30.2299 125.755 30.3847 125.597 30.5109L121.863 27.1074C121.537 27.5245 121.396 27.9699 121.441 28.4435C121.486 28.9172 121.697 29.3264 122.075 29.6714C122.619 30.1672 123.211 30.2899 123.851 30.0395L124.942 31.0339C124.384 31.3484 123.778 31.4727 123.124 31.4067C122.481 31.3402 121.873 31.0455 121.299 30.5227C120.832 30.0969 120.507 29.6108 120.323 29.0643C120.15 28.5174 120.13 27.9577 120.262 27.3853C120.406 26.8123 120.707 26.2746 121.165 25.7721C121.623 25.2696 122.125 24.9207 122.671 24.7256C123.228 24.53 123.784 24.4958 124.339 24.623C124.9 24.7556 125.42 25.0402 125.899 25.4768C126.36 25.8972 126.68 26.3722 126.857 26.902C127.034 27.4318 127.057 27.9716 126.923 28.5214C126.796 29.0652 126.516 29.5737 126.085 30.0466ZM125.321 28.7653C125.654 28.3875 125.794 27.9677 125.738 27.5059C125.683 27.0441 125.463 26.638 125.079 26.2877C124.73 25.9697 124.329 25.8098 123.876 25.8081C123.428 25.8005 123.008 25.9643 122.616 26.2996L125.321 28.7653Z" fill="#1E1E1E"/>
<path d="M131.241 42.0691C130.932 41.6023 130.733 41.1291 130.646 40.6496C130.565 40.1657 130.604 39.7176 130.763 39.3053C130.922 38.8931 131.201 38.5544 131.601 38.2892L132.41 39.5096C132.127 39.7351 131.958 40.0154 131.902 40.3502C131.85 40.6918 131.95 41.0526 132.201 41.4327C132.462 41.8262 132.759 42.0711 133.091 42.1674C133.431 42.2593 133.75 42.2059 134.05 42.007C134.284 41.8523 134.427 41.6564 134.481 41.4191C134.54 41.1885 134.54 40.9434 134.483 40.6836C134.431 40.4305 134.332 40.093 134.187 39.671C134.006 39.138 133.881 38.6883 133.811 38.322C133.752 37.958 133.786 37.5897 133.914 37.2173C134.041 36.8449 134.322 36.5151 134.755 36.2279C135.156 35.9627 135.572 35.8308 136.005 35.832C136.437 35.8332 136.853 35.9608 137.252 36.2148C137.65 36.4689 138.007 36.8327 138.32 37.3061C138.767 37.9797 138.961 38.6425 138.904 39.2947C138.858 39.9491 138.557 40.4941 138.001 40.9297L137.165 39.6693C137.406 39.4814 137.543 39.2177 137.577 38.8783C137.611 38.5389 137.509 38.1892 137.27 37.8291C137.054 37.5023 136.794 37.2908 136.49 37.1946C136.186 37.0983 135.878 37.154 135.564 37.3617C135.351 37.5031 135.216 37.6836 135.16 37.9031C135.115 38.1248 135.119 38.3623 135.171 38.6154C135.224 38.8684 135.318 39.1993 135.455 39.608C135.633 40.1521 135.754 40.6095 135.817 40.9802C135.885 41.3576 135.852 41.7347 135.718 42.1115C135.594 42.4906 135.313 42.8259 134.873 43.1176C134.519 43.3518 134.122 43.4761 133.68 43.4904C133.243 43.5113 132.806 43.4025 132.37 43.1639C131.944 42.9275 131.568 42.5626 131.241 42.0691Z" fill="#1E1E1E"/>
<path d="M140.395 46.7403L137.119 48.3717C136.897 48.4822 136.761 48.6126 136.71 48.7627C136.671 48.9165 136.713 49.1187 136.838 49.3694L137.213 50.1213L136.192 50.6295L135.711 49.6627C135.436 49.1113 135.355 48.6246 135.466 48.2026C135.578 47.7806 135.924 47.4252 136.504 47.1363L139.78 45.5049L139.432 44.8067L140.431 44.3093L140.779 45.0075L142.251 44.2747L142.866 45.51L141.394 46.2428L142.111 47.6822L141.112 48.1797L140.395 46.7403Z" fill="#1E1E1E"/>
<path d="M145.936 57.5052L139.7 59.7027L139.245 58.4125L139.981 58.1532C139.653 58.0399 139.355 57.8438 139.087 57.565C138.829 57.2911 138.635 56.9693 138.505 56.5996C138.332 56.1091 138.278 55.6318 138.344 55.1677C138.412 54.7111 138.606 54.2992 138.926 53.9319C139.249 53.5722 139.693 53.2926 140.259 53.0932L143.926 51.801L144.377 53.0799L140.902 54.3043C140.344 54.5011 139.963 54.7922 139.76 55.1777C139.564 55.5606 139.551 55.9935 139.721 56.4764C139.891 56.9593 140.173 57.2885 140.565 57.4639C140.968 57.6443 141.449 57.6361 142.007 57.4394L145.482 56.215L145.936 57.5052Z" fill="#1E1E1E"/>
<path d="M143.241 59.9583C143.889 59.8162 144.493 59.8233 145.051 59.9794C145.611 60.1434 146.078 60.426 146.453 60.8272C146.837 61.2344 147.091 61.7233 147.216 62.2938C147.309 62.7158 147.306 63.1505 147.207 63.598C147.118 64.0515 146.948 64.4328 146.696 64.7418L149.814 64.0589L150.109 65.4069L141.435 67.3067L141.14 65.9587L142.113 65.7456C141.752 65.5952 141.428 65.347 141.139 65.0007C140.852 64.6623 140.653 64.243 140.544 63.7429C140.421 63.1802 140.448 62.6336 140.627 62.1031C140.815 61.5787 141.133 61.1241 141.581 60.7394C142.039 60.3607 142.592 60.1003 143.241 59.9583ZM144.375 65.2501C144.821 65.1526 145.187 64.9741 145.474 64.7146C145.763 64.463 145.961 64.1699 146.068 63.8353C146.174 63.5006 146.19 63.1614 146.115 62.8176C146.04 62.4737 145.884 62.1721 145.647 61.9128C145.417 61.6518 145.118 61.4635 144.749 61.3478C144.389 61.2382 143.987 61.2322 143.541 61.3298C143.096 61.4273 142.725 61.6028 142.428 61.8561C142.133 62.1173 141.928 62.416 141.813 62.7523C141.708 63.0948 141.692 63.434 141.766 63.77C141.841 64.1139 141.997 64.4155 142.234 64.6748C142.471 64.9341 142.774 65.1177 143.141 65.2255C143.518 65.3395 143.93 65.3477 144.375 65.2501Z" fill="#1E1E1E"/>
<path d="M149.432 71.3976C149.409 71.1506 149.474 70.9358 149.626 70.753C149.777 70.5702 149.977 70.4674 150.224 70.4445C150.471 70.4216 150.685 70.4861 150.868 70.6378C151.051 70.7896 151.154 70.989 151.177 71.2359C151.199 71.4749 151.134 71.6858 150.982 71.8686C150.831 72.0514 150.631 72.1542 150.384 72.1771C150.137 72.2 149.922 72.1355 149.74 71.9837C149.557 71.8319 149.454 71.6366 149.432 71.3976ZM148.622 72.1476L142.038 72.7576L141.912 71.3955L148.496 70.7854L148.622 72.1476Z" fill="#1E1E1E"/>
<path d="M142.106 79.6947C142.126 79.0709 142.283 78.5115 142.578 78.0164C142.882 77.5215 143.294 77.138 143.814 76.8659C144.343 76.594 144.947 76.4686 145.627 76.4895C146.298 76.5102 146.89 76.6765 147.4 76.9884C147.911 77.3002 148.298 77.7164 148.562 78.2367C148.826 78.7571 148.949 79.3332 148.929 79.9649C148.91 80.5966 148.752 81.164 148.457 81.6671C148.161 82.1702 147.749 82.5617 147.22 82.8416C146.691 83.1214 146.091 83.251 145.419 83.2303C144.747 83.2096 144.156 83.0394 143.646 82.7195C143.136 82.3996 142.745 81.9714 142.473 81.4348C142.209 80.9064 142.087 80.3264 142.106 79.6947ZM143.294 79.7312C143.283 80.0831 143.357 80.4135 143.515 80.7225C143.674 81.0395 143.918 81.2992 144.248 81.5014C144.578 81.7037 144.983 81.8122 145.462 81.827C145.942 81.8418 146.349 81.7623 146.682 81.5884C147.024 81.4149 147.283 81.1787 147.46 80.8801C147.638 80.5814 147.732 80.2561 147.743 79.9043C147.753 79.5525 147.68 79.222 147.521 78.913C147.362 78.612 147.118 78.3683 146.787 78.1821C146.465 77.996 146.064 77.8956 145.584 77.8809C144.872 77.8589 144.315 78.0219 143.912 78.3696C143.517 78.7256 143.311 79.1795 143.294 79.7312Z" fill="#1E1E1E"/>
<path d="M140.734 112.313L138.614 111.089L137.174 113.583L136.207 113.025L137.647 110.531L135.433 109.253L133.814 112.059L132.847 111.501L135.151 107.51L142.384 111.686L140.08 115.677L139.114 115.119L140.734 112.313Z" fill="#1E1E1E"/>
<path d="M131.744 119.017L127.785 118.704L128.718 117.469L131.369 117.681L130.388 115.257L131.249 114.117L132.557 117.781L136.525 118.102L135.592 119.337L132.941 119.124L133.922 121.549L133.061 122.689L131.744 119.017Z" fill="#1E1E1E"/>
<path d="M129.298 125.528C129.354 125.906 129.318 126.311 129.189 126.743C129.06 127.175 128.82 127.572 128.469 127.934C128.068 128.347 127.6 128.623 127.064 128.762C126.529 128.911 125.983 128.906 125.426 128.744C124.869 128.583 124.353 128.272 123.876 127.809C123.399 127.347 123.066 126.835 122.876 126.272C122.692 125.715 122.661 125.161 122.783 124.61C122.905 124.071 123.166 123.594 123.567 123.181C123.918 122.819 124.302 122.567 124.718 122.425C125.14 122.288 125.547 122.236 125.938 122.27L122.991 119.413L123.944 118.431L130.948 125.223L129.995 126.205L129.298 125.528ZM124.845 126.81C125.172 127.128 125.521 127.331 125.89 127.422C126.259 127.524 126.613 127.521 126.95 127.414C127.288 127.318 127.58 127.144 127.825 126.892C128.064 126.645 128.23 126.348 128.32 126.001C128.406 125.661 128.395 125.304 128.287 124.933C128.174 124.567 127.954 124.225 127.626 123.907C127.299 123.59 126.948 123.378 126.573 123.27C126.198 123.174 125.841 123.174 125.503 123.27C125.16 123.371 124.868 123.545 124.629 123.792C124.384 124.045 124.219 124.342 124.133 124.682C124.048 125.035 124.065 125.396 124.184 125.768C124.297 126.145 124.518 126.493 124.845 126.81Z" fill="#1E1E1E"/>
<path d="M123.146 135.595L117.579 128.677L118.645 127.819L124.212 134.737L123.146 135.595Z" fill="#1E1E1E"/>
<path d="M111.837 132.569C112.368 132.241 112.921 132.063 113.497 132.036C114.077 132.015 114.624 132.147 115.139 132.431C115.657 132.721 116.096 133.155 116.454 133.734C116.807 134.305 116.995 134.89 117.017 135.488C117.039 136.085 116.907 136.638 116.619 137.146C116.331 137.653 115.918 138.074 115.381 138.406C114.843 138.739 114.283 138.921 113.701 138.953C113.118 138.984 112.564 138.857 112.039 138.57C111.513 138.284 111.074 137.855 110.72 137.284C110.366 136.712 110.182 136.126 110.166 135.524C110.151 134.921 110.292 134.359 110.589 133.836C110.884 133.324 111.3 132.902 111.837 132.569ZM112.463 133.579C112.163 133.765 111.929 134.009 111.759 134.312C111.582 134.619 111.5 134.966 111.514 135.352C111.528 135.739 111.661 136.137 111.913 136.545C112.166 136.953 112.457 137.248 112.786 137.43C113.12 137.619 113.46 137.705 113.807 137.687C114.153 137.67 114.477 137.569 114.776 137.384C115.075 137.198 115.31 136.954 115.48 136.651C115.643 136.353 115.711 136.014 115.684 135.636C115.661 135.264 115.523 134.874 115.27 134.466C114.895 133.861 114.452 133.486 113.939 133.343C113.424 133.21 112.932 133.289 112.463 133.579Z" fill="#1E1E1E"/>
<path d="M107.271 141.578C107.23 141.967 107.098 142.314 106.877 142.618C106.652 142.933 106.333 143.185 105.918 143.376L105.327 142.09L105.643 141.944C106.13 141.72 106.444 141.426 106.584 141.062C106.718 140.701 106.644 140.215 106.363 139.605L104.909 136.443L106.151 135.872L108.915 141.879L107.672 142.45L107.271 141.578Z" fill="#1E1E1E"/>
<path d="M95.0481 143.763C94.9729 143.527 94.9203 143.308 94.8901 143.108L99.7044 141.576C99.5062 141.085 99.1909 140.741 98.7584 140.543C98.326 140.344 97.8658 140.323 97.3779 140.478C96.6766 140.701 96.2744 141.152 96.1715 141.831L94.7649 142.279C94.7712 141.639 94.9665 141.052 95.3508 140.518C95.7299 139.995 96.2892 139.615 97.0287 139.38C97.6309 139.189 98.2147 139.15 98.7798 139.264C99.3398 139.388 99.8346 139.65 100.264 140.051C100.689 140.462 101.004 140.991 101.21 141.639C101.416 142.287 101.467 142.896 101.363 143.466C101.254 144.047 101.006 144.546 100.618 144.963C100.223 145.382 99.7162 145.69 99.0987 145.887C98.504 146.076 97.933 146.115 97.3855 146.004C96.838 145.893 96.3594 145.642 95.9499 145.252C95.5427 144.869 95.2422 144.373 95.0481 143.763ZM96.5399 143.742C96.7003 144.22 96.9943 144.55 97.4219 144.733C97.8495 144.916 98.3111 144.929 98.8066 144.771C99.2564 144.628 99.5953 144.361 99.8233 143.969C100.054 143.585 100.122 143.139 100.028 142.632L96.5399 143.742Z" fill="#1E1E1E"/>
<path d="M82.0609 142.216C82.6199 142.182 83.1288 142.247 83.5878 142.411C84.0473 142.583 84.4158 142.84 84.6935 143.184C84.9712 143.528 85.1248 143.939 85.1544 144.418L83.6932 144.508C83.6391 144.151 83.4811 143.864 83.2193 143.648C82.9495 143.432 82.587 143.338 82.1319 143.366C81.6608 143.395 81.3004 143.53 81.0507 143.769C80.8014 144.017 80.6879 144.321 80.7101 144.68C80.7273 144.96 80.8252 145.182 81.0037 145.347C81.1743 145.513 81.3863 145.636 81.6397 145.717C81.8852 145.798 82.2269 145.881 82.665 145.966C83.2169 146.076 83.6689 146.193 84.0211 146.315C84.3658 146.446 84.6676 146.66 84.9263 146.957C85.1851 147.253 85.3305 147.661 85.3625 148.18C85.3921 148.659 85.2982 149.086 85.0808 149.46C84.8634 149.834 84.545 150.13 84.1257 150.349C83.7063 150.567 83.2132 150.693 82.6463 150.728C81.8398 150.778 81.1685 150.615 80.6323 150.24C80.0887 149.872 79.7672 149.339 79.668 148.64L81.1771 148.547C81.2198 148.849 81.3795 149.099 81.6563 149.299C81.9331 149.498 82.2871 149.584 82.7183 149.558C83.1096 149.534 83.4228 149.414 83.658 149.199C83.8932 148.984 83.9993 148.689 83.9761 148.314C83.9603 148.058 83.8714 147.851 83.7094 147.693C83.5398 147.543 83.3323 147.428 83.0868 147.347C82.8414 147.266 82.5076 147.182 82.0855 147.096C81.5252 146.978 81.0687 146.854 80.716 146.724C80.3553 146.594 80.0453 146.376 79.786 146.072C79.5193 145.776 79.3697 145.364 79.3372 144.837C79.311 144.414 79.4022 144.007 79.6106 143.618C79.811 143.229 80.1237 142.905 80.5485 142.646C80.9659 142.396 81.47 142.253 82.0609 142.216Z" fill="#1E1E1E"/>
<path d="M73.4356 147.808L73.661 144.155C73.6762 143.907 73.6314 143.724 73.5265 143.605C73.4131 143.494 73.2167 143.43 72.9373 143.413L72.0989 143.361L72.169 142.223L73.247 142.29C73.8618 142.328 74.3241 142.5 74.6337 142.808C74.9434 143.116 75.0782 143.593 75.0383 144.24L74.813 147.893L75.5915 147.941L75.5228 149.055L74.7443 149.007L74.6431 150.647L73.2657 150.562L73.3669 148.922L71.7619 148.823L71.8307 147.709L73.4356 147.808Z" fill="#1E1E1E"/>
<path d="M61.3404 147.222L62.5552 140.722L63.8999 140.974L63.7566 141.74C64.0189 141.513 64.3377 141.353 64.7132 141.26C65.0792 141.174 65.4549 141.167 65.8403 141.239C66.3514 141.334 66.7916 141.526 67.1608 141.815C67.5222 142.102 67.7819 142.477 67.9399 142.937C68.0901 143.397 68.11 143.921 67.9998 144.511L67.2854 148.333L65.9525 148.084L66.6294 144.463C66.7381 143.881 66.6764 143.405 66.4443 143.036C66.2106 142.675 65.8422 142.448 65.3389 142.354C64.8356 142.26 64.4098 142.339 64.0615 142.591C63.7039 142.85 63.4707 143.27 63.362 143.852L62.6851 147.473L61.3404 147.222Z" fill="#1E1E1E"/>
<path d="M60.5651 143.667C60.3638 144.3 60.0559 144.819 59.6415 145.224C59.2195 145.627 58.7411 145.891 58.2065 146.014C57.6617 146.143 57.1111 146.119 56.5546 145.942C56.1429 145.811 55.768 145.591 55.4298 145.282C55.0815 144.978 54.8365 144.64 54.6947 144.268L53.7271 147.309L52.412 146.891L55.104 138.429L56.419 138.847L56.1171 139.796C56.4276 139.559 56.8049 139.402 57.2491 139.325C57.6857 139.246 58.148 139.284 58.6359 139.439C59.1848 139.614 59.6443 139.911 60.0144 140.331C60.3745 140.756 60.6091 141.259 60.7183 141.839C60.8174 142.425 60.7664 143.034 60.5651 143.667ZM55.415 142.003C55.2768 142.438 55.2482 142.844 55.3293 143.223C55.4028 143.599 55.5577 143.917 55.7941 144.177C56.0304 144.436 56.3163 144.62 56.6517 144.726C56.9872 144.833 57.3264 144.849 57.6695 144.773C58.0101 144.705 58.3228 144.54 58.6076 144.278C58.8824 144.021 59.0889 143.676 59.2271 143.241C59.3654 142.807 59.399 142.398 59.3279 142.014C59.2492 141.628 59.0929 141.301 58.859 141.034C58.615 140.772 58.3291 140.588 58.0013 140.484C57.6659 140.377 57.3267 140.362 56.9836 140.437C56.6406 140.513 56.3304 140.683 56.0532 140.947C55.766 141.217 55.5532 141.569 55.415 142.003Z" fill="#1E1E1E"/>
<path d="M47.565 143.303C47.7903 143.407 47.9441 143.57 48.0265 143.793C48.1089 144.016 48.0983 144.24 47.9946 144.465C47.891 144.69 47.7277 144.844 47.5049 144.927C47.282 145.009 47.058 144.998 46.8327 144.895C46.6146 144.794 46.4644 144.633 46.382 144.41C46.2996 144.187 46.3102 143.963 46.4139 143.738C46.5176 143.512 46.6808 143.359 46.9037 143.276C47.1265 143.194 47.3469 143.203 47.565 143.303ZM47.3206 142.226L50.0843 136.22L51.3271 136.791L48.5634 142.798L47.3206 142.226Z" fill="#1E1E1E"/>
<path d="M44.0404 132.814C44.5709 133.143 44.9767 133.558 45.2578 134.062C45.5348 134.572 45.6609 135.121 45.6362 135.708C45.6073 136.301 45.4139 136.887 45.056 137.465C44.7022 138.037 44.2626 138.466 43.7372 138.752C43.2118 139.038 42.6578 139.166 42.0751 139.134C41.4923 139.103 40.9323 138.921 40.395 138.588C39.8576 138.255 39.445 137.835 39.1571 137.327C38.8692 136.82 38.7362 136.267 38.7583 135.669C38.7804 135.071 38.9683 134.487 39.322 133.915C39.6758 133.344 40.1188 132.917 40.651 132.635C41.1832 132.353 41.7495 132.228 42.3501 132.262C42.9396 132.297 43.503 132.481 44.0404 132.814ZM43.415 133.824C43.1157 133.639 42.7926 133.538 42.4457 133.52C42.092 133.499 41.7451 133.581 41.405 133.765C41.0648 133.95 40.7684 134.246 40.5158 134.654C40.2631 135.062 40.1286 135.454 40.1124 135.83C40.092 136.213 40.1668 136.555 40.3368 136.858C40.5068 137.161 40.7415 137.405 41.0408 137.59C41.34 137.776 41.6631 137.877 42.01 137.894C42.3501 137.907 42.6835 137.817 43.01 137.624C43.3323 137.438 43.6198 137.141 43.8725 136.733C44.2473 136.127 44.3848 135.563 44.2851 135.04C44.1743 134.52 43.8843 134.115 43.415 133.824Z" fill="#1E1E1E"/>
<path d="M16.4789 115.312L18.5989 114.088L17.1589 111.594L18.1254 111.036L19.5654 113.53L21.779 112.252L20.159 109.446L21.1255 108.888L23.4295 112.879L16.1964 117.055L13.8924 113.064L14.8589 112.506L16.4789 115.312Z" fill="#1E1E1E"/>
<path d="M15.1721 104.177L17.4227 100.905L18.0261 102.33L16.5162 104.52L19.1066 104.883L19.6632 106.198L15.8359 105.499L13.5742 108.775L12.9708 107.35L14.4807 105.16L11.8903 104.797L11.3337 103.482L15.1721 104.177Z" fill="#1E1E1E"/>
<path d="M10.7475 98.8055C10.3916 98.6655 10.0589 98.4316 9.74936 98.1038C9.43984 97.776 9.21611 97.3697 9.07819 96.8849C8.92057 96.3309 8.91567 95.7875 9.06352 95.2547C9.20147 94.7164 9.47946 94.2464 9.89748 93.8447C10.3155 93.443 10.8438 93.1512 11.4825 92.9695C12.1212 92.7878 12.7316 92.7555 13.3139 92.8727C13.8885 92.992 14.3838 93.242 14.7999 93.6227C15.206 93.9978 15.4879 94.4624 15.6456 95.0164C15.7835 95.5012 15.8099 95.9595 15.7248 96.3912C15.632 96.8252 15.4734 97.203 15.2488 97.5247L19.1962 96.4017L19.5705 97.7174L10.1869 100.387L9.81257 99.0714L10.7475 98.8055ZM11.8634 94.3084C11.4248 94.4332 11.0741 94.6328 10.8111 94.9072C10.5383 95.1762 10.3638 95.4836 10.2876 95.8297C10.2015 96.1703 10.2066 96.5098 10.3029 96.8484C10.3971 97.1793 10.5715 97.4707 10.8261 97.7226C11.0786 97.9668 11.3927 98.1353 11.7684 98.228C12.1419 98.313 12.548 98.2932 12.9866 98.1684C13.4252 98.0436 13.7848 97.8456 14.0653 97.5745C14.3359 97.2979 14.5143 96.9893 14.6004 96.6488C14.6843 96.3005 14.6791 95.9609 14.585 95.6301C14.4887 95.2915 14.3143 95.0001 14.0618 94.7559C13.7994 94.5061 13.4777 94.3399 13.0964 94.257C12.713 94.1665 12.302 94.1836 11.8634 94.3084Z" fill="#1E1E1E"/>
<path d="M5.11008 88.4413L13.885 87.0793L14.0948 88.4311L5.31992 89.7931L5.11008 88.4413Z" fill="#1E1E1E"/>
<path d="M13.3842 80.1583C13.4034 80.782 13.2809 81.3501 13.0165 81.8624C12.7442 82.3751 12.3565 82.7832 11.8536 83.0868C11.3428 83.3907 10.7475 83.5531 10.0678 83.574C9.39612 83.5947 8.79585 83.4652 8.26698 83.1853C7.73811 82.9055 7.32586 82.514 7.03023 82.0108C6.7346 81.5077 6.57705 80.9403 6.5576 80.3086C6.53814 79.6769 6.66046 79.1008 6.92456 78.5805C7.18866 78.0601 7.57603 77.644 8.08667 77.3321C8.59731 77.0202 9.18847 76.8539 9.86015 76.8332C10.5318 76.8126 11.1322 76.9461 11.6613 77.234C12.1905 77.5218 12.6071 77.9252 12.9112 78.4441C13.2071 78.9552 13.3647 79.5266 13.3842 80.1583ZM12.1968 80.1949C12.1859 79.8431 12.0919 79.5178 11.9146 79.2191C11.7371 78.9124 11.4774 78.6683 11.1357 78.4868C10.7939 78.3052 10.3832 78.2218 9.90338 78.2366C9.42361 78.2514 9.02264 78.3558 8.70046 78.5498C8.37028 78.744 8.12591 78.9957 7.96735 79.3047C7.80879 79.6137 7.73493 79.9442 7.74577 80.296C7.75661 80.6478 7.85067 80.9731 8.02795 81.2718C8.20498 81.5624 8.46413 81.7906 8.80539 81.9561C9.13865 82.122 9.54517 82.1975 10.0249 82.1827C10.7366 82.1608 11.2828 81.9639 11.6635 81.592C12.036 81.2123 12.2138 80.7466 12.1968 80.1949Z" fill="#1E1E1E"/>
<path d="M7.86577 71.7019C7.54966 71.4718 7.31513 71.1849 7.16218 70.8413C7.002 70.489 6.94295 70.0859 6.98502 69.6318L8.39498 69.7625L8.36287 70.109C8.31341 70.6427 8.41119 71.0615 8.65619 71.3654C8.90193 71.6614 9.35937 71.8403 10.0285 71.9023L13.4937 72.2234L13.3674 73.5856L6.78364 72.9755L6.90986 71.6133L7.86577 71.7019Z" fill="#1E1E1E"/>
<path d="M12.0855 60.0236C12.3277 60.0766 12.5431 60.1402 12.7316 60.2142L11.6508 65.1492C12.1752 65.2231 12.6313 65.1224 13.0192 64.847C13.4071 64.5716 13.6558 64.1838 13.7653 63.6837C13.9228 62.9647 13.7332 62.3909 13.1964 61.9621L13.5122 60.5203C14.0634 60.8457 14.4739 61.3083 14.7439 61.9079C15.0077 62.498 15.0567 63.1721 14.8906 63.9301C14.7554 64.5475 14.4972 65.0724 14.1158 65.5048C13.7284 65.9277 13.2538 66.2251 12.692 66.3969C12.1242 66.5592 11.5081 66.5675 10.8438 66.4221C10.1796 66.2766 9.62648 66.0162 9.18453 65.641C8.73647 65.2562 8.42874 64.7917 8.26133 64.2472C8.09563 63.695 8.0821 63.1024 8.22073 62.4694C8.35423 61.8598 8.60602 61.3458 8.97613 60.9273C9.34623 60.5088 9.80263 60.2197 10.3453 60.0601C10.8802 59.8988 11.4603 59.8866 12.0855 60.0236ZM11.358 61.3261C10.8639 61.2261 10.4308 61.3155 10.0585 61.5943C9.68623 61.8731 9.44447 62.2665 9.33322 62.7745C9.23225 63.2355 9.2943 63.6627 9.51938 64.0559C9.73664 64.4475 10.0885 64.7293 10.575 64.9013L11.358 61.3261Z" fill="#1E1E1E"/>
<path d="M19.9204 49.546C19.6708 50.0473 19.3602 50.4557 18.9886 50.7712C18.6099 51.083 18.2023 51.2733 17.766 51.342C17.3296 51.4107 16.8966 51.3381 16.4669 51.1241L17.1195 49.8136C17.456 49.9454 17.7834 49.9521 18.1016 49.8335C18.4234 49.7077 18.6859 49.4407 18.8892 49.0326C19.0996 48.61 19.1633 48.2307 19.0805 47.8945C18.9905 47.5548 18.7844 47.3047 18.4621 47.1442C18.2115 47.0194 17.9699 46.993 17.7375 47.0649C17.5086 47.1297 17.2959 47.2517 17.0995 47.4309C16.9065 47.6029 16.6637 47.8574 16.3709 48.1941C15.9995 48.6169 15.6727 48.9502 15.3904 49.1939C15.1046 49.427 14.7685 49.5813 14.3823 49.6571C13.996 49.7329 13.5701 49.6549 13.1046 49.4231C12.675 49.2091 12.3525 48.9145 12.1372 48.5392C11.9219 48.1639 11.8246 47.7401 11.8453 47.2678C11.866 46.7955 12.0029 46.3051 12.2561 45.7967C12.6163 45.0734 13.0931 44.5735 13.6865 44.2971C14.2764 44.0099 14.8989 43.9981 15.554 44.2618L14.8801 45.6153C14.5973 45.5012 14.3003 45.5143 13.9893 45.6543C13.6783 45.7943 13.4265 46.0577 13.2339 46.4444C13.0592 46.7953 13.0061 47.1264 13.0745 47.4375C13.143 47.7487 13.3456 47.988 13.6821 48.1556C13.9113 48.2697 14.135 48.2962 14.3531 48.235C14.5676 48.1631 14.7714 48.0411 14.9643 47.8691C15.1572 47.697 15.3965 47.4498 15.6822 47.1273C16.0643 46.7009 16.4001 46.3677 16.6895 46.1275C16.9824 45.8801 17.3256 45.7204 17.7191 45.6482C18.1089 45.5652 18.5401 45.6415 19.0128 45.8768C19.3923 46.0658 19.6987 46.3479 19.9318 46.7232C20.1686 47.0913 20.2927 47.524 20.3043 48.0213C20.3122 48.5079 20.1843 49.0161 19.9204 49.546Z" fill="#1E1E1E"/>
<path d="M19.388 39.284L22.4389 41.3057C22.6457 41.4426 22.8267 41.4954 22.9819 41.4639C23.1349 41.4213 23.2887 41.2833 23.4434 41.0499L23.9073 40.3497L24.8576 40.9794L24.2611 41.8797C23.9208 42.3932 23.5401 42.7071 23.1188 42.8214C22.6976 42.9358 22.2169 42.814 21.6767 42.456L18.6257 40.4344L18.1949 41.0846L17.2646 40.4681L17.6954 39.8179L16.325 38.9098L17.0872 37.7595L18.4577 38.6676L19.3459 37.3271L20.2762 37.9436L19.388 39.284Z" fill="#1E1E1E"/>
<path d="M25.9419 29.1051L30.9631 33.407L30.073 34.4459L29.4807 33.9384C29.5467 34.2794 29.526 34.6356 29.4185 35.007C29.3101 35.3671 29.1284 35.696 28.8733 35.9937C28.535 36.3886 28.1485 36.6737 27.7138 36.8491C27.2843 37.0184 26.8305 37.0563 26.3524 36.9627C25.8794 36.863 25.4152 36.6179 24.9595 36.2276L22.007 33.698L22.8892 32.6682L25.6868 35.0651C26.1364 35.4503 26.579 35.6346 27.0146 35.618C27.4441 35.5962 27.8254 35.3909 28.1585 35.0021C28.4917 34.6132 28.636 34.205 28.5917 33.7772C28.5465 33.3381 28.2991 32.926 27.8495 32.5408L25.0519 30.144L25.9419 29.1051Z" fill="#1E1E1E"/>
<path d="M29.4129 30.2089C28.9655 29.7182 28.6699 29.1921 28.526 28.6305C28.388 28.0634 28.3991 27.5175 28.5593 26.9926C28.72 26.4564 29.0161 25.9916 29.4477 25.5981C29.767 25.3071 30.145 25.0924 30.5818 24.954C31.0191 24.8044 31.4344 24.7613 31.8279 24.8248L29.6775 22.4658L30.6973 21.5361L36.6797 28.0986L35.6598 29.0283L34.9888 28.2922C35.0389 28.6796 34.9862 29.0849 34.8307 29.5081C34.6811 29.9259 34.4172 30.3073 34.0388 30.6522C33.6131 31.0402 33.1259 31.2895 32.5771 31.4001C32.0289 31.4993 31.4762 31.4511 30.9189 31.2554C30.3622 31.0485 29.8602 30.6996 29.4129 30.2089ZM33.4286 26.5807C33.1214 26.2437 32.7837 26.0157 32.4154 25.8967C32.0531 25.7724 31.7003 25.7476 31.3571 25.8223C31.0138 25.8971 30.7121 26.053 30.452 26.2901C30.1919 26.5273 30.0088 26.8133 29.9027 27.1481C29.7912 27.4771 29.7777 27.8304 29.8622 28.2081C29.9471 28.5744 30.1432 28.9261 30.4504 29.2631C30.7576 29.6001 31.0951 29.8337 31.4628 29.964C31.8365 30.0888 32.1976 30.1169 32.5462 30.048C32.8954 29.9679 33.1971 29.812 33.4513 29.5802C33.7114 29.3431 33.8945 29.0571 34.0006 28.7222C34.1067 28.3874 34.1146 28.0338 34.0242 27.6615C33.9343 27.2779 33.7358 26.9177 33.4286 26.5807Z" fill="#1E1E1E"/>
<path d="M36.2256 19.1325C36.0231 19.2758 35.8048 19.3274 35.5707 19.2873C35.3365 19.2473 35.1477 19.126 35.0044 18.9236C34.8612 18.7212 34.8095 18.5029 34.8496 18.2687C34.8897 18.0345 35.0109 17.8458 35.2133 17.7025C35.4092 17.5638 35.6243 17.5145 35.8584 17.5546C36.0926 17.5946 36.2814 17.7159 36.4246 17.9183C36.5679 18.1207 36.6195 18.339 36.5795 18.5732C36.5394 18.8074 36.4215 18.9938 36.2256 19.1325ZM37.2802 19.4592L41.1003 24.856L39.9838 25.6464L36.1636 20.2496L37.2802 19.4592Z" fill="#1E1E1E"/>
<path d="M47.0754 21.3235C46.5257 21.6187 45.9625 21.7622 45.386 21.7539C44.8057 21.7386 44.2676 21.5736 43.7717 21.2587C43.272 20.9368 42.8612 20.4764 42.5396 19.8773C42.2217 19.2852 42.0701 18.6901 42.0849 18.0919C42.0997 17.4938 42.2664 16.9502 42.585 16.4613C42.9036 15.9724 43.3413 15.5785 43.8981 15.2795C44.4549 14.9805 45.0251 14.8333 45.6087 14.8378C46.1922 14.8422 46.7374 15.0035 47.2442 15.3216C47.7509 15.6397 48.1633 16.0948 48.4812 16.6869C48.7991 17.2789 48.9471 17.8759 48.9253 18.4778C48.9035 19.0798 48.7281 19.6325 48.3991 20.136C48.0735 20.6287 47.6322 21.0246 47.0754 21.3235ZM46.5134 20.2769C46.8235 20.1104 47.0728 19.8812 47.2611 19.5894C47.4565 19.2938 47.5593 18.9525 47.5695 18.5657C47.5797 18.1788 47.4713 17.7739 47.2442 17.351C47.0171 16.9282 46.745 16.6157 46.4277 16.4138C46.1066 16.2048 45.7725 16.0982 45.4251 16.0941C45.0778 16.0899 44.7491 16.171 44.439 16.3375C44.1289 16.5041 43.8796 16.7332 43.6913 17.0251C43.51 17.3131 43.4213 17.6468 43.4252 18.026C43.4253 18.3983 43.5389 18.7958 43.7659 19.2187C44.1028 19.846 44.5225 20.2472 45.0251 20.4223C45.531 20.5865 46.0271 20.538 46.5134 20.2769Z" fill="#1E1E1E"/>
</svg>
