<?xml version="1.0" encoding="UTF-8"?>
<svg xmlns="http://www.w3.org/2000/svg" version="1.1" viewBox="0 0 156 156">
  <defs>
    <style>
      .cls-1 {
        fill: #1e1e1e;
      }

      .cls-1, .cls-2 {
        stroke-width: 0px;
      }

      .cls-2 {
        fill: #000;
      }

      .cls-3 {
        display: none;
      }
    </style>
  </defs>
  <g id="Layer_1" data-name="Layer 1" class="cls-3">
    <path class="cls-1" d="M76,6.2v2.4h2.9s0,1.1,0,1.1h-2.9v2.6h3.2s0,1.1,0,1.1h-4.6s0-8.4,0-8.4h4.6s0,1.1,0,1.1h-3.2Z"/>
    <path class="cls-1" d="M86.3,10.6l1.7,3.6-1.5-.2-1.1-2.4-1.6,2.1-1.4-.2,2.5-3-1.7-3.6,1.5.2,1.1,2.4,1.6-2.1,1.4.2-2.5,3Z"/>
    <path class="cls-1" d="M93.2,9.5c.3-.2.7-.4,1.1-.5.4-.1.9,0,1.4,0,.6.1,1,.4,1.4.8.4.4.7.9.8,1.4.1.6.1,1.2,0,1.8-.2.6-.4,1.2-.8,1.6-.4.4-.9.7-1.4.9-.5.2-1.1.2-1.6,0-.5-.1-.9-.3-1.2-.6-.3-.3-.6-.6-.7-1l-1,4-1.3-.3,2.4-9.5,1.3.3-.2.9ZM96.5,12.7c.1-.4.1-.8,0-1.2,0-.4-.3-.7-.5-.9-.3-.2-.5-.4-.9-.5-.3,0-.7,0-1,0-.3,0-.6.3-.9.6-.3.3-.4.6-.6,1.1-.1.4-.1.9,0,1.2.1.4.3.7.5.9.3.2.6.4.9.5.3,0,.7,0,1,0,.3-.1.7-.3.9-.6.3-.3.5-.7.6-1.1Z"/>
    <path class="cls-1" d="M105,9.8l-3.2,8.3-1.3-.5,3.2-8.3,1.3.5Z"/>
    <path class="cls-1" d="M108,21.1c-.5-.3-1-.7-1.3-1.2-.3-.5-.5-1-.5-1.6,0-.6.1-1.2.5-1.8.3-.6.7-1,1.2-1.4.5-.3,1.1-.5,1.6-.5.6,0,1.2.1,1.7.4.6.3,1,.7,1.3,1.2.3.5.5,1,.5,1.6,0,.6-.1,1.2-.5,1.8-.3.6-.7,1-1.2,1.4-.5.3-1.1.5-1.7.5-.6,0-1.2-.1-1.7-.4ZM108.6,20.1c.3.2.6.2,1,.2.4,0,.7-.1,1-.3.3-.2.6-.5.8-.9.2-.4.3-.8.3-1.2,0-.4,0-.7-.3-1-.2-.3-.4-.5-.7-.7-.3-.2-.6-.2-1-.2-.3,0-.7.1-1,.3-.3.2-.6.5-.8.9-.3.6-.4,1.2-.3,1.7.1.5.5.9.9,1.2Z"/>
    <path class="cls-1" d="M118.1,20.6c.4-.2.7-.2,1.1-.2.4,0,.8.2,1.1.5l-.8,1.2-.3-.2c-.4-.3-.8-.4-1.2-.4-.4,0-.8.4-1.2.9l-2,2.8-1.1-.8,3.8-5.4,1.1.8-.6.8Z"/>
    <path class="cls-1" d="M126.1,30c-.2.2-.3.3-.5.5l-3.7-3.4c-.3.4-.5.9-.4,1.3,0,.5.3.9.6,1.2.5.5,1.1.6,1.8.4l1.1,1c-.6.3-1.2.4-1.8.4-.6,0-1.3-.4-1.8-.9-.5-.4-.8-.9-1-1.5-.2-.5-.2-1.1,0-1.7.1-.6.4-1.1.9-1.6.5-.5,1-.9,1.5-1,.6-.2,1.1-.2,1.7-.1.6.1,1.1.4,1.6.9.5.4.8.9,1,1.4.2.5.2,1.1,0,1.6-.1.5-.4,1.1-.8,1.5ZM125.3,28.8c.3-.4.5-.8.4-1.3,0-.5-.3-.9-.7-1.2-.3-.3-.8-.5-1.2-.5-.4,0-.9.2-1.3.5l2.7,2.5Z"/>
    <path class="cls-1" d="M131.2,42.1c-.3-.5-.5-.9-.6-1.4,0-.5,0-.9.1-1.3.2-.4.4-.8.8-1l.8,1.2c-.3.2-.5.5-.5.8,0,.3,0,.7.3,1.1.3.4.6.6.9.7.3,0,.7,0,1-.2.2-.2.4-.4.4-.6,0-.2,0-.5,0-.7,0-.3-.2-.6-.3-1-.2-.5-.3-1-.4-1.3,0-.4,0-.7.1-1.1.1-.4.4-.7.8-1,.4-.3.8-.4,1.2-.4.4,0,.8.1,1.2.4.4.3.8.6,1.1,1.1.4.7.6,1.3.6,2,0,.7-.3,1.2-.9,1.6l-.8-1.3c.2-.2.4-.5.4-.8s0-.7-.3-1c-.2-.3-.5-.5-.8-.6-.3,0-.6,0-.9.2-.2.1-.3.3-.4.5,0,.2,0,.5,0,.7,0,.3.1.6.3,1,.2.5.3,1,.4,1.4,0,.4,0,.8,0,1.1-.1.4-.4.7-.8,1-.4.2-.8.4-1.2.4-.4,0-.9,0-1.3-.3-.4-.2-.8-.6-1.1-1.1Z"/>
    <path class="cls-1" d="M140.4,46.7l-3.3,1.6c-.2.1-.4.2-.4.4,0,.2,0,.4.1.6l.4.8-1,.5-.5-1c-.3-.6-.4-1-.2-1.5.1-.4.5-.8,1-1.1l3.3-1.6-.3-.7,1-.5.3.7,1.5-.7.6,1.2-1.5.7.7,1.4-1,.5-.7-1.4Z"/>
    <path class="cls-1" d="M145.9,57.5l-6.2,2.2-.5-1.3.7-.3c-.3-.1-.6-.3-.9-.6-.3-.3-.5-.6-.6-1-.2-.5-.2-1-.2-1.4,0-.5.3-.9.6-1.2.3-.4.8-.6,1.3-.8l3.7-1.3.5,1.3-3.5,1.2c-.6.2-.9.5-1.1.9-.2.4-.2.8,0,1.3.2.5.5.8.8,1,.4.2.9.2,1.4,0l3.5-1.2.5,1.3Z"/>
    <path class="cls-1" d="M143.2,60c.6-.1,1.3-.1,1.8,0,.6.2,1,.4,1.4.8.4.4.6.9.8,1.5,0,.4,0,.9,0,1.3,0,.5-.3.8-.5,1.1l3.1-.7.3,1.3-8.7,1.9-.3-1.3,1-.2c-.4-.2-.7-.4-1-.7-.3-.3-.5-.8-.6-1.3-.1-.6,0-1.1,0-1.6.2-.5.5-1,1-1.4.5-.4,1-.6,1.7-.8ZM144.4,65.3c.4,0,.8-.3,1.1-.5.3-.3.5-.5.6-.9.1-.3.1-.7,0-1,0-.3-.2-.6-.5-.9-.2-.3-.5-.4-.9-.6-.4-.1-.8-.1-1.2,0-.4,0-.8.3-1.1.5-.3.3-.5.6-.6.9-.1.3-.1.7,0,1,0,.3.2.6.5.9s.5.4.9.6c.4.1.8.1,1.2,0Z"/>
    <path class="cls-1" d="M149.4,71.4c0-.2,0-.5.2-.6.2-.2.4-.3.6-.3.2,0,.5,0,.6.2.2.2.3.4.3.6,0,.2,0,.4-.2.6-.2.2-.4.3-.6.3-.2,0-.5,0-.6-.2-.2-.2-.3-.3-.3-.6ZM148.6,72.1l-6.6.6v-1.4c-.1,0,6.5-.6,6.5-.6v1.4Z"/>
    <path class="cls-1" d="M142.1,79.7c0-.6.2-1.2.5-1.7.3-.5.7-.9,1.2-1.2.5-.3,1.1-.4,1.8-.4.7,0,1.3.2,1.8.5.5.3.9.7,1.2,1.2.3.5.4,1.1.4,1.7,0,.6-.2,1.2-.5,1.7-.3.5-.7.9-1.2,1.2-.5.3-1.1.4-1.8.4-.7,0-1.3-.2-1.8-.5-.5-.3-.9-.7-1.2-1.3-.3-.5-.4-1.1-.4-1.7ZM143.3,79.7c0,.4,0,.7.2,1,.2.3.4.6.7.8.3.2.7.3,1.2.3.5,0,.9,0,1.2-.2.3-.2.6-.4.8-.7.2-.3.3-.6.3-1,0-.4,0-.7-.2-1-.2-.3-.4-.5-.7-.7-.3-.2-.7-.3-1.2-.3-.7,0-1.3.1-1.7.5-.4.4-.6.8-.6,1.4Z"/>
    <path class="cls-1" d="M140.7,112.3l-2.1-1.2-1.4,2.5-1-.6,1.4-2.5-2.2-1.3-1.6,2.8-1-.6,2.3-4,7.2,4.2-2.3,4-1-.6,1.6-2.8Z"/>
    <path class="cls-1" d="M131.7,119l-4-.3.9-1.2,2.7.2-1-2.4.9-1.1,1.3,3.7,4,.3-.9,1.2-2.7-.2,1,2.4-.9,1.1-1.3-3.7Z"/>
    <path class="cls-1" d="M129.3,125.5c0,.4,0,.8-.1,1.2-.1.4-.4.8-.7,1.2-.4.4-.9.7-1.4.8-.5.1-1.1.1-1.6,0-.6-.2-1.1-.5-1.6-.9-.5-.5-.8-1-1-1.5-.2-.6-.2-1.1,0-1.7.1-.5.4-1,.8-1.4.4-.4.7-.6,1.2-.8.4-.1.8-.2,1.2-.2l-2.9-2.9,1-1,7,6.8-1,1-.7-.7ZM124.8,126.8c.3.3.7.5,1,.6.4.1.7,0,1.1,0,.3,0,.6-.3.9-.5.2-.2.4-.5.5-.9,0-.3,0-.7,0-1.1-.1-.4-.3-.7-.7-1-.3-.3-.7-.5-1.1-.6-.4,0-.7,0-1.1,0-.3.1-.6.3-.9.5-.2.3-.4.6-.5.9,0,.4,0,.7,0,1.1.1.4.3.7.7,1Z"/>
    <path class="cls-1" d="M123.1,135.6l-5.6-6.9,1.1-.9,5.6,6.9-1.1.9Z"/>
    <path class="cls-1" d="M111.8,132.6c.5-.3,1.1-.5,1.7-.5.6,0,1.1.1,1.6.4.5.3,1,.7,1.3,1.3.4.6.5,1.2.6,1.8,0,.6-.1,1.1-.4,1.7-.3.5-.7.9-1.2,1.3-.5.3-1.1.5-1.7.5-.6,0-1.1,0-1.7-.4-.5-.3-1-.7-1.3-1.3-.4-.6-.5-1.2-.6-1.8,0-.6.1-1.2.4-1.7.3-.5.7-.9,1.2-1.3ZM112.5,133.6c-.3.2-.5.4-.7.7-.2.3-.3.7-.2,1,0,.4.1.8.4,1.2.3.4.5.7.9.9.3.2.7.3,1,.3.3,0,.7-.1,1-.3.3-.2.5-.4.7-.7.2-.3.2-.6.2-1,0-.4-.2-.8-.4-1.2-.4-.6-.8-1-1.3-1.1-.5-.1-1,0-1.5.2Z"/>
    <path class="cls-1" d="M107.3,141.6c0,.4-.2.7-.4,1-.2.3-.5.6-1,.8l-.6-1.3h.3c.5-.4.8-.7.9-1,.1-.4,0-.8-.2-1.5l-1.5-3.2,1.2-.6,2.8,6-1.2.6-.4-.9Z"/>
    <path class="cls-1" d="M95,143.8c0-.2-.1-.5-.2-.7l4.8-1.5c-.2-.5-.5-.8-.9-1-.4-.2-.9-.2-1.4,0-.7.2-1.1.7-1.2,1.4l-1.4.4c0-.6.2-1.2.6-1.8.4-.5.9-.9,1.7-1.1.6-.2,1.2-.2,1.8-.1.6.1,1.1.4,1.5.8.4.4.7.9.9,1.6.2.6.3,1.3.2,1.8-.1.6-.4,1.1-.7,1.5-.4.4-.9.7-1.5.9-.6.2-1.2.2-1.7.1-.5-.1-1-.4-1.4-.8-.4-.4-.7-.9-.9-1.5ZM96.5,143.7c.2.5.5.8.9,1,.4.2.9.2,1.4,0,.4-.1.8-.4,1-.8.2-.4.3-.8.2-1.3l-3.5,1.1Z"/>
    <path class="cls-1" d="M82.1,142.2c.6,0,1.1,0,1.5.2.5.2.8.4,1.1.8.3.3.4.8.5,1.2h-1.5c0-.3-.2-.6-.5-.8-.3-.2-.6-.3-1.1-.3-.5,0-.8.2-1.1.4-.2.2-.4.6-.3.9,0,.3.1.5.3.7.2.2.4.3.6.4.2,0,.6.2,1,.2.6.1,1,.2,1.4.3.3.1.6.3.9.6.3.3.4.7.4,1.2,0,.5,0,.9-.3,1.3-.2.4-.5.7-1,.9-.4.2-.9.3-1.5.4-.8,0-1.5-.1-2-.5-.5-.4-.9-.9-1-1.6h1.5c0,.2.2.5.5.7.3.2.6.3,1.1.3.4,0,.7-.1.9-.4.2-.2.3-.5.3-.9,0-.3-.1-.5-.3-.6-.2-.1-.4-.3-.6-.3-.2,0-.6-.2-1-.3-.6-.1-1-.2-1.4-.4-.4-.1-.7-.3-.9-.7-.3-.3-.4-.7-.4-1.2,0-.4,0-.8.3-1.2.2-.4.5-.7.9-1,.4-.2.9-.4,1.5-.4Z"/>
    <path class="cls-1" d="M73.4,147.8l.2-3.7c0-.2,0-.4-.1-.6-.1-.1-.3-.2-.6-.2h-.8c0,0,0-1.2,0-1.2h1.1c.6.1,1.1.3,1.4.6.3.3.4.8.4,1.4l-.2,3.7h.8s0,1.2,0,1.2h-.8s-.1,1.6-.1,1.6h-1.4c0,0,.1-1.7.1-1.7h-1.6c0,0,0-1.2,0-1.2h1.6Z"/>
    <path class="cls-1" d="M61.3,147.2l1.2-6.5,1.3.3v.8c.1-.2.4-.4.8-.5.4,0,.7,0,1.1,0,.5,0,1,.3,1.3.6.4.3.6.7.8,1.1.2.5.2,1,0,1.6l-.7,3.8-1.3-.2.7-3.6c.1-.6,0-1.1-.2-1.4-.2-.4-.6-.6-1.1-.7-.5,0-.9,0-1.3.2-.4.3-.6.7-.7,1.3l-.7,3.6-1.3-.3Z"/>
    <path class="cls-1" d="M60.6,143.7c-.2.6-.5,1.2-.9,1.6-.4.4-.9.7-1.4.8-.5.1-1.1.1-1.7,0-.4-.1-.8-.4-1.1-.7-.3-.3-.6-.6-.7-1l-1,3-1.3-.4,2.7-8.5,1.3.4-.3.9c.3-.2.7-.4,1.1-.5.4,0,.9,0,1.4.1.5.2,1,.5,1.4.9.4.4.6.9.7,1.5,0,.6,0,1.2-.2,1.8ZM55.4,142c-.1.4-.2.8,0,1.2,0,.4.2.7.5,1,.2.3.5.4.9.5.3.1.7.1,1,0,.3,0,.7-.2.9-.5.3-.3.5-.6.6-1,.1-.4.2-.8.1-1.2,0-.4-.2-.7-.5-1-.2-.3-.5-.4-.9-.6-.3-.1-.7-.1-1,0-.3,0-.7.2-.9.5-.3.3-.5.6-.6,1.1Z"/>
    <path class="cls-1" d="M47.6,143.3c.2.1.4.3.5.5,0,.2,0,.4,0,.7-.1.2-.3.4-.5.5-.2,0-.4,0-.7,0-.2-.1-.4-.3-.5-.5,0-.2,0-.4,0-.7.1-.2.3-.4.5-.5.2,0,.4,0,.7,0ZM47.3,142.2l2.8-6,1.2.6-2.8,6-1.2-.6Z"/>
    <path class="cls-1" d="M44,132.8c.5.3.9.7,1.2,1.2.3.5.4,1.1.4,1.6,0,.6-.2,1.2-.6,1.8-.4.6-.8,1-1.3,1.3-.5.3-1.1.4-1.7.4-.6,0-1.1-.2-1.7-.5-.5-.3-1-.8-1.2-1.3-.3-.5-.4-1.1-.4-1.7,0-.6.2-1.2.6-1.8.4-.6.8-1,1.3-1.3.5-.3,1.1-.4,1.7-.4.6,0,1.2.2,1.7.6ZM43.4,133.8c-.3-.2-.6-.3-1-.3-.4,0-.7,0-1,.2-.3.2-.6.5-.9.9-.3.4-.4.8-.4,1.2,0,.4,0,.7.2,1,.2.3.4.5.7.7.3.2.6.3,1,.3.3,0,.7,0,1-.3.3-.2.6-.5.9-.9.4-.6.5-1.2.4-1.7-.1-.5-.4-.9-.9-1.2Z"/>
    <path class="cls-1" d="M16.5,115.3l2.1-1.2-1.4-2.5,1-.6,1.4,2.5,2.2-1.3-1.6-2.8,1-.6,2.3,4-7.2,4.2-2.3-4,1-.6,1.6,2.8Z"/>
    <path class="cls-1" d="M15.2,104.2l2.3-3.3.6,1.4-1.5,2.2,2.6.4.6,1.3-3.8-.7-2.3,3.3-.6-1.4,1.5-2.2-2.6-.4-.6-1.3,3.8.7Z"/>
    <path class="cls-1" d="M10.7,98.8c-.4-.1-.7-.4-1-.7-.3-.3-.5-.7-.7-1.2-.2-.6-.2-1.1,0-1.6.1-.5.4-1,.8-1.4.4-.4.9-.7,1.6-.9.6-.2,1.2-.2,1.8,0,.6.1,1.1.4,1.5.8.4.4.7.8.8,1.4.1.5.2.9,0,1.4,0,.4-.3.8-.5,1.1l3.9-1.1.4,1.3-9.4,2.7-.4-1.3.9-.3ZM11.9,94.3c-.4.1-.8.3-1.1.6-.3.3-.4.6-.5.9,0,.3,0,.7,0,1,0,.3.3.6.5.9.3.2.6.4.9.5.4,0,.8,0,1.2,0,.4-.1.8-.3,1.1-.6.3-.3.4-.6.5-.9,0-.3,0-.7,0-1,0-.3-.3-.6-.5-.9-.3-.2-.6-.4-1-.5-.4,0-.8,0-1.2,0Z"/>
    <path class="cls-1" d="M5.1,88.4l8.8-1.4.2,1.4-8.8,1.4-.2-1.4Z"/>
    <path class="cls-1" d="M13.4,80.2c0,.6-.1,1.2-.4,1.7-.3.5-.7.9-1.2,1.2-.5.3-1.1.5-1.8.5-.7,0-1.3-.1-1.8-.4-.5-.3-.9-.7-1.2-1.2-.3-.5-.5-1.1-.5-1.7,0-.6.1-1.2.4-1.7.3-.5.7-.9,1.2-1.2s1.1-.5,1.8-.5c.7,0,1.3.1,1.8.4.5.3.9.7,1.2,1.2.3.5.5,1.1.5,1.7ZM12.2,80.2c0-.4-.1-.7-.3-1-.2-.3-.4-.6-.8-.7-.3-.2-.8-.3-1.2-.3-.5,0-.9.1-1.2.3-.3.2-.6.4-.7.8-.2.3-.2.6-.2,1s.1.7.3,1c.2.3.4.5.8.7.3.2.7.2,1.2.2.7,0,1.3-.2,1.6-.6.4-.4.6-.8.5-1.4Z"/>
    <path class="cls-1" d="M7.9,71.7c-.3-.2-.6-.5-.7-.9-.2-.4-.2-.8-.2-1.2h1.4c0,.1,0,.5,0,.5,0,.5,0,1,.3,1.3.2.3.7.5,1.4.5l3.5.3v1.4c-.1,0-6.7-.6-6.7-.6v-1.4c.1,0,1.1,0,1.1,0Z"/>
    <path class="cls-1" d="M12.1,60c.2,0,.5.1.6.2l-1.1,4.9c.5,0,1,0,1.4-.3.4-.3.6-.7.7-1.2.2-.7,0-1.3-.6-1.7l.3-1.4c.6.3,1,.8,1.2,1.4.3.6.3,1.3.1,2-.1.6-.4,1.1-.8,1.6-.4.4-.9.7-1.4.9-.6.2-1.2.2-1.8,0-.7-.1-1.2-.4-1.7-.8-.4-.4-.8-.8-.9-1.4-.2-.6-.2-1.1,0-1.8.1-.6.4-1.1.8-1.5.4-.4.8-.7,1.4-.9.5-.2,1.1-.2,1.7,0ZM11.4,61.3c-.5,0-.9,0-1.3.3-.4.3-.6.7-.7,1.2-.1.5,0,.9.2,1.3.2.4.6.7,1.1.8l.8-3.6Z"/>
    <path class="cls-1" d="M19.9,49.5c-.2.5-.6.9-.9,1.2-.4.3-.8.5-1.2.6-.4,0-.9,0-1.3-.2l.7-1.3c.3.1.7.1,1,0,.3-.1.6-.4.8-.8.2-.4.3-.8.2-1.1,0-.3-.3-.6-.6-.8-.3-.1-.5-.2-.7,0-.2,0-.4.2-.6.4-.2.2-.4.4-.7.8-.4.4-.7.8-1,1-.3.2-.6.4-1,.5-.4,0-.8,0-1.3-.2-.4-.2-.8-.5-1-.9-.2-.4-.3-.8-.3-1.3,0-.5.2-1,.4-1.5.4-.7.8-1.2,1.4-1.5.6-.3,1.2-.3,1.9,0l-.7,1.4c-.3-.1-.6-.1-.9,0s-.6.4-.8.8c-.2.4-.2.7-.2,1,0,.3.3.6.6.7.2.1.5.1.7,0,.2,0,.4-.2.6-.4.2-.2.4-.4.7-.7.4-.4.7-.8,1-1,.3-.2.6-.4,1-.5.4,0,.8,0,1.3.2.4.2.7.5.9.8.2.4.4.8.4,1.3,0,.5-.1,1-.4,1.5Z"/>
    <path class="cls-1" d="M19.4,39.3l3.1,2c.2.1.4.2.5.2.2,0,.3-.2.5-.4l.5-.7,1,.6-.6.9c-.3.5-.7.8-1.1.9-.4.1-.9,0-1.4-.4l-3.1-2-.4.7-.9-.6.4-.7-1.4-.9.8-1.2,1.4.9.9-1.3.9.6-.9,1.3Z"/>
    <path class="cls-1" d="M25.9,29.1l5,4.3-.9,1-.6-.5c0,.3,0,.7,0,1.1-.1.4-.3.7-.5,1-.3.4-.7.7-1.2.9-.4.2-.9.2-1.4.1-.5,0-.9-.3-1.4-.7l-3-2.5.9-1,2.8,2.4c.4.4.9.6,1.3.6.4,0,.8-.2,1.1-.6.3-.4.5-.8.4-1.2,0-.4-.3-.9-.7-1.2l-2.8-2.4.9-1Z"/>
    <path class="cls-1" d="M29.4,30.2c-.4-.5-.7-1-.9-1.6-.1-.6-.1-1.1,0-1.6.2-.5.5-1,.9-1.4.3-.3.7-.5,1.1-.6.4-.1.9-.2,1.2-.1l-2.2-2.4,1-.9,6,6.6-1,.9-.7-.7c0,.4,0,.8-.2,1.2-.1.4-.4.8-.8,1.1-.4.4-.9.6-1.5.7-.5,0-1.1,0-1.7-.1-.6-.2-1.1-.6-1.5-1ZM33.4,26.6c-.3-.3-.6-.6-1-.7-.4-.1-.7-.1-1.1,0-.3,0-.6.2-.9.5-.3.2-.4.5-.5.9-.1.3-.1.7,0,1.1,0,.4.3.7.6,1.1.3.3.6.6,1,.7.4.1.7.2,1.1,0,.3,0,.7-.2.9-.5.3-.2.4-.5.5-.9.1-.3.1-.7,0-1.1,0-.4-.3-.7-.6-1.1Z"/>
    <path class="cls-1" d="M36.2,19.1c-.2.1-.4.2-.7.2-.2,0-.4-.2-.6-.4-.1-.2-.2-.4-.2-.7s.2-.4.4-.6c.2-.1.4-.2.6-.1.2,0,.4.2.6.4.1.2.2.4.2.7,0,.2-.2.4-.4.6ZM37.3,19.5l3.8,5.4-1.1.8-3.8-5.4,1.1-.8Z"/>
    <path class="cls-1" d="M47.1,21.3c-.5.3-1.1.4-1.7.4-.6,0-1.1-.2-1.6-.5-.5-.3-.9-.8-1.2-1.4-.3-.6-.5-1.2-.5-1.8,0-.6.2-1.1.5-1.6.3-.5.8-.9,1.3-1.2.6-.3,1.1-.4,1.7-.4.6,0,1.1.2,1.6.5.5.3.9.8,1.2,1.4.3.6.5,1.2.4,1.8,0,.6-.2,1.2-.5,1.7-.3.5-.8.9-1.3,1.2ZM46.5,20.3c.3-.2.6-.4.7-.7.2-.3.3-.6.3-1,0-.4,0-.8-.3-1.2-.2-.4-.5-.7-.8-.9-.3-.2-.7-.3-1-.3-.3,0-.7,0-1,.2-.3.2-.6.4-.7.7-.2.3-.3.6-.3,1,0,.4.1.8.3,1.2.3.6.8,1,1.3,1.2.5.2,1,.1,1.5-.1Z"/>
  </g>
  <g id="Layer_2" data-name="Layer 2">
    <g>
      <path class="cls-2" d="M64.5,14.9l-1.5-8.3,5.2-.9.2,1-4,.7.5,2.6,3.7-.7.2.9-3.7.7.5,2.7,4-.7.2,1-5.2.9Z"/>
      <path class="cls-2" d="M70.6,13.9l1.9-3.2-2.3-2.9h1.3c0,0,1.8,2.1,1.8,2.1l1.4-2.5h1.3c0,0-1.9,3.1-1.9,3.1l2.3,2.9h-1.3c0,0-1.8-2.1-1.8-2.1l-1.4,2.5h-1.3Z"/>
      <path class="cls-2" d="M77.4,16.1l.3-8.7h1.1s0,1,0,1c.1-.2.3-.3.5-.5.2-.2.4-.3.7-.4.3,0,.6-.1.9-.1.6,0,1.1.2,1.5.5.4.3.8.7,1,1.2.2.5.3,1,.3,1.6,0,.6-.2,1.1-.4,1.6-.3.5-.6.8-1.1,1.1-.4.3-1,.4-1.5.4-.5,0-.9-.1-1.2-.3-.3-.2-.6-.5-.8-.8v3.6c-.1,0-1.3,0-1.3,0ZM80.6,12.6c.4,0,.7,0,1-.2.3-.2.5-.4.7-.7s.3-.7.3-1.1c0-.4,0-.8-.2-1.1-.2-.3-.4-.6-.6-.8-.3-.2-.6-.3-1-.3-.4,0-.7,0-1,.2-.3.2-.5.4-.7.7-.2.3-.3.7-.3,1.1,0,.4,0,.8.2,1.1.1.3.4.6.6.8.3.2.6.3,1,.3Z"/>
      <path class="cls-2" d="M85.2,13.8l1-8.6h1.2c0,.1-1,8.7-1,8.7h-1.2Z"/>
      <path class="cls-2" d="M90.8,14.8c-.6-.1-1-.3-1.4-.7-.4-.3-.7-.8-.8-1.3-.2-.5-.2-1.1,0-1.7.1-.6.4-1.1.7-1.6s.8-.7,1.3-.9c.5-.2,1-.2,1.6,0,.6.1,1,.3,1.4.7.4.3.7.8.8,1.3.2.5.2,1.1,0,1.7-.1.6-.4,1.1-.7,1.6-.4.4-.8.7-1.3.9-.5.2-1,.2-1.6,0ZM91,13.8c.3,0,.6,0,.9,0s.6-.3.8-.6c.2-.3.4-.6.5-1.1,0-.5,0-.9,0-1.2,0-.3-.3-.6-.5-.8-.2-.2-.5-.3-.8-.4-.3,0-.6,0-.9,0-.3.1-.6.3-.8.6-.2.3-.4.6-.5,1.1,0,.5,0,.9,0,1.2,0,.3.3.6.5.8.2.2.5.3.8.4Z"/>
      <path class="cls-2" d="M95.2,15.7l1.7-5.8,1,.3-.2,1.1c.2-.2.5-.4.7-.5s.5-.2.9-.2c.3,0,.7,0,1,.1l-.4,1.2h-.4c-.2-.2-.5-.2-.7-.2-.2,0-.5,0-.7.1-.2,0-.4.2-.6.4s-.3.5-.4.8l-.9,2.9-1.2-.3Z"/>
      <path class="cls-2" d="M101.9,18.1c-.5-.2-1-.5-1.3-.9-.3-.4-.5-.9-.6-1.4s0-1.1.3-1.7c.2-.6.5-1.1,1-1.4s.9-.6,1.4-.7c.5,0,1.1,0,1.6.2.6.2,1,.5,1.3.9.3.4.5.8.5,1.3,0,.5,0,1-.2,1.5,0,0,0,.2,0,.2,0,0,0,.2-.1.3l-4.6-1.8.3-.8,3.5,1.4c.2-.5.1-.9,0-1.3-.2-.4-.5-.7-.9-.8-.3-.1-.6-.2-.9-.1-.3,0-.6.2-.8.4-.3.2-.5.5-.6.9v.3c-.3.4-.4.8-.3,1.1,0,.3.1.6.3.9.2.2.4.4.7.6.4.1.7.2,1,.1s.5-.2.8-.4l1.1.4c-.2.3-.5.5-.9.7s-.7.3-1.1.3c-.4,0-.8,0-1.3-.2Z"/>
      <path class="cls-2" d="M108.8,21l4.5-7.1,1.2.8-.6,6.3,5.4-3.3,1.2.8-4.5,7.1-1-.6,3.4-5.3-4.9,2.9-.8-.5.5-5.7-3.3,5.3-1-.6Z"/>
      <path class="cls-2" d="M119.4,28.5c-.4-.4-.8-.8-.9-1.3-.2-.5-.2-1-.1-1.5s.4-1,.8-1.5c.4-.5.9-.8,1.4-1s1-.3,1.5-.2c.5,0,1,.3,1.4.7.4.4.7.8.9,1.3s.2,1,.1,1.5-.4,1-.8,1.5c-.4.5-.9.8-1.4,1s-1,.2-1.5.2c-.5,0-1-.3-1.4-.7ZM120,27.7c.2.2.5.3.8.4.3,0,.6,0,1-.1s.7-.4.9-.7c.3-.4.5-.7.6-1.1,0-.3,0-.7,0-1s-.3-.5-.5-.7c-.2-.2-.5-.3-.8-.4-.3,0-.6,0-1,.1-.3.1-.6.4-.9.7-.3.4-.5.7-.6,1.1s0,.7,0,1c0,.3.3.5.5.7Z"/>
      <path class="cls-2" d="M122.8,31.4l4.3-4.3.8.8-.7.9c.3,0,.6-.1.9-.1.3,0,.6,0,.9.2.3.1.6.3.8.6l-.9.9-.3-.3c-.2-.2-.4-.3-.6-.4-.2-.1-.4-.2-.6-.2-.2,0-.5,0-.7.1-.2.1-.5.3-.8.5l-2.1,2.1-.8-.9Z"/>
      <path class="cls-2" d="M127.6,36.8c-.4-.4-.6-.9-.7-1.4,0-.5,0-1,.2-1.5s.5-.9,1-1.3,1-.7,1.5-.8c.5-.1,1,0,1.5,0,.5.2.9.5,1.3.9.4.5.6.9.7,1.4,0,.5,0,1-.2,1.4s-.5.8-.9,1.2c0,0-.1.1-.2.2s-.2.1-.2.2l-3.1-3.8.6-.5,2.4,2.9c.4-.3.6-.7.6-1.1,0-.4-.1-.8-.4-1.2-.2-.3-.5-.4-.7-.6-.3-.1-.6-.1-.9,0-.3,0-.6.2-1,.5l-.3.2c-.3.3-.6.6-.7.9-.1.3-.2.6-.1.9,0,.3.2.6.4.8.2.3.5.5.8.6.3,0,.6,0,.9,0l.8.9c-.3.2-.7.2-1.1.2-.4,0-.8,0-1.1-.3s-.7-.4-1-.8Z"/>
      <path class="cls-2" d="M140.9,63.5l8.3-1.5,1,5.2-1,.2-.7-4-2.6.5.7,3.7-.9.2-.7-3.7-2.7.5.7,4-1,.2-1-5.2Z"/>
      <path class="cls-2" d="M142,69.6l3.2,1.9,2.8-2.3v1.3c.1,0-2.1,1.8-2.1,1.8l2.5,1.4v1.3c.1,0-3.1-1.8-3.1-1.8l-2.9,2.3v-1.3c-.1,0,2.1-1.8,2.1-1.8l-2.5-1.4v-1.3Z"/>
      <path class="cls-2" d="M139.8,76.4l8.7.2v1.1s-1,0-1,0c.2.1.3.3.5.5s.3.4.4.7c0,.3.1.6.1.9,0,.6-.2,1.1-.5,1.5-.3.4-.7.8-1.2,1s-1,.3-1.6.3c-.6,0-1.1-.2-1.6-.4-.5-.3-.8-.6-1.1-1.1-.3-.4-.4-1-.4-1.5,0-.5.1-.9.3-1.2.2-.4.5-.6.8-.8h-3.6c0-.1,0-1.3,0-1.3ZM143.3,79.6c0,.4,0,.7.2,1,.2.3.4.5.7.7.3.2.7.3,1.1.3.4,0,.8,0,1.1-.2.3-.2.6-.4.8-.7.2-.3.3-.6.3-1,0-.4,0-.7-.2-1-.2-.3-.4-.5-.7-.7s-.7-.3-1.1-.3c-.4,0-.8,0-1.1.2s-.6.4-.8.6c-.2.3-.3.6-.3,1Z"/>
      <path class="cls-2" d="M142.1,84.1l8.6,1v1.2c-.1,0-8.7-1-8.7-1v-1.2Z"/>
      <path class="cls-2" d="M141.1,89.8c.1-.6.3-1,.7-1.4s.8-.7,1.3-.8,1.1-.2,1.7,0c.6.1,1.2.4,1.6.7s.7.8.9,1.3c.2.5.2,1,0,1.6-.1.6-.3,1-.7,1.4-.3.4-.8.7-1.3.8s-1.1.2-1.7,0c-.6-.1-1.1-.4-1.6-.7s-.7-.8-.9-1.3c-.2-.5-.2-1,0-1.6ZM142.1,90c0,.3,0,.6,0,.9.1.3.3.6.6.8s.7.4,1.1.5c.5,0,.9,0,1.2,0,.3-.1.6-.3.8-.5.2-.2.3-.5.4-.8s0-.6,0-.9c-.1-.3-.3-.6-.6-.8-.3-.2-.7-.4-1.1-.5-.5,0-.9,0-1.2,0-.3.1-.6.3-.8.5-.2.2-.3.5-.4.8Z"/>
      <path class="cls-2" d="M140.3,94.2l5.8,1.7-.3,1-1.1-.2c.2.2.4.4.5.7.1.3.2.5.2.9s0,.7-.1,1l-1.2-.4v-.4c.2-.2.2-.5.2-.7,0-.2,0-.5-.1-.7,0-.2-.2-.4-.4-.5-.2-.2-.5-.3-.9-.4l-2.9-.8.3-1.2Z"/>
      <path class="cls-2" d="M137.9,101c.2-.5.5-1,.9-1.3s.9-.5,1.4-.6c.5,0,1.1,0,1.7.3.6.2,1.1.5,1.4.9.4.4.6.9.7,1.4s0,1.1-.2,1.6c-.2.6-.5,1-.9,1.3s-.8.5-1.3.5-1,0-1.5-.2c0,0-.2,0-.2,0,0,0-.2,0-.3-.1l1.8-4.6.8.3-1.4,3.5c.5.2.9.1,1.3,0s.7-.5.8-.9c.1-.3.2-.6.1-.9,0-.3-.2-.6-.4-.8-.2-.3-.5-.5-.9-.6h-.3c-.4-.3-.8-.3-1.1-.3-.3,0-.6.2-.9.3-.2.2-.4.4-.5.7-.1.4-.2.7-.1,1s.2.5.4.8l-.4,1.1c-.3-.2-.5-.5-.7-.9-.2-.3-.3-.7-.3-1.1s0-.8.2-1.3Z"/>
      <path class="cls-2" d="M135,107.9l7.1,4.4-.8,1.2-6.3-.6,3.3,5.4-.8,1.2-7.1-4.4.6-1,5.3,3.3-3-4.9.5-.8,5.7.5-5.3-3.3.6-1Z"/>
      <path class="cls-2" d="M127.5,118.4c.4-.4.8-.8,1.3-.9.5-.2,1-.2,1.5-.1.5.1,1,.4,1.5.8.5.4.8.9,1,1.4.2.5.3,1,.2,1.5,0,.5-.3,1-.7,1.4-.4.4-.8.8-1.3.9s-1,.2-1.5.1c-.5,0-1-.4-1.5-.8-.5-.4-.8-.9-1-1.4-.2-.5-.3-1-.2-1.5s.3-1,.7-1.4ZM128.3,119.1c-.2.2-.3.5-.4.8,0,.3,0,.6.1,1s.4.6.7.9c.4.3.7.5,1.1.6.3,0,.7,0,1,0,.3-.1.5-.3.7-.5.2-.2.3-.5.4-.8s0-.6-.1-1c-.1-.3-.4-.6-.8-.9-.4-.3-.7-.5-1.1-.6-.4,0-.7,0-1,0-.3.1-.5.3-.7.5Z"/>
      <path class="cls-2" d="M124.7,121.9l4.3,4.3-.8.8-.9-.7c0,.3.1.6.1.9,0,.3,0,.6-.2.9-.1.3-.3.6-.6.8l-.9-.9.3-.3c.2-.2.3-.4.4-.6.1-.2.2-.4.2-.6,0-.2,0-.5-.1-.7-.1-.2-.3-.5-.6-.8l-2.1-2.1.8-.8Z"/>
      <path class="cls-2" d="M119.3,126.7c.4-.4.9-.6,1.4-.7.5,0,1,0,1.5.2.5.2.9.5,1.4,1s.7,1,.8,1.5c.1.5,0,1,0,1.5-.2.5-.5.9-.9,1.3-.5.4-.9.6-1.4.7-.5,0-1,0-1.4-.2s-.8-.5-1.2-.9c0,0-.1-.1-.2-.2,0,0-.1-.2-.2-.2l3.8-3.2.5.6-2.9,2.4c.3.4.7.6,1.1.6.4,0,.8-.1,1.2-.4.3-.2.4-.5.5-.7s.1-.6,0-.9-.2-.6-.5-1l-.2-.3c-.3-.3-.6-.6-.9-.7-.3-.1-.6-.2-.9-.1s-.6.2-.8.4-.5.5-.6.8c0,.3,0,.6,0,.9l-.9.8c-.2-.3-.2-.7-.2-1.1,0-.4,0-.8.3-1.1.2-.4.4-.7.8-1Z"/>
      <path class="cls-2" d="M92.7,140.1l1.6,8.3-5.2,1-.2-1,4-.8-.5-2.6-3.7.7-.2-.9,3.7-.7-.5-2.7-4,.8-.2-1,5.2-1Z"/>
      <path class="cls-2" d="M86.6,141.2l-1.8,3.2,2.3,2.8h-1.3c0,.1-1.8-2.1-1.8-2.1l-1.4,2.5h-1.3c0,.1,1.8-3.1,1.8-3.1l-2.3-2.8h1.3c0-.1,1.8,2.1,1.8,2.1l1.4-2.5h1.3Z"/>
      <path class="cls-2" d="M79.8,139.1l-.2,8.7h-1.1s0-1,0-1c-.1.2-.3.4-.5.5-.2.2-.4.3-.7.4s-.6.1-.9.1c-.6,0-1.1-.2-1.5-.5-.4-.3-.8-.7-1-1.2-.2-.5-.3-1-.3-1.6,0-.6.2-1.1.4-1.6s.6-.8,1.1-1.1,1-.4,1.5-.4c.5,0,.9.1,1.2.3.4.2.6.5.8.8v-3.6c0,0,1.3,0,1.3,0ZM76.6,142.6c-.4,0-.7,0-1,.2s-.5.4-.7.7c-.2.3-.3.7-.3,1.1,0,.4,0,.8.2,1.1.2.3.4.6.7.8.3.2.6.3,1,.3.4,0,.7,0,1-.2.3-.2.5-.4.7-.7s.3-.7.3-1.1c0-.4,0-.8-.2-1.1-.1-.3-.4-.6-.6-.8-.3-.2-.6-.3-1-.3Z"/>
      <path class="cls-2" d="M72,141.4l-.9,8.6h-1.2c0-.1.9-8.7.9-8.7h1.2Z"/>
      <path class="cls-2" d="M66.4,140.4c.6.1,1,.3,1.4.7.4.3.7.8.8,1.3.2.5.2,1.1,0,1.7-.1.6-.3,1.2-.7,1.6-.3.4-.8.7-1.3.9-.5.2-1,.2-1.6.1-.6-.1-1-.3-1.4-.7s-.7-.8-.8-1.3-.2-1.1,0-1.7c.1-.6.3-1.1.7-1.6.3-.4.8-.7,1.3-.9s1-.2,1.6-.1ZM66.2,141.5c-.3,0-.6,0-.9,0-.3.1-.6.3-.8.6-.2.3-.4.7-.5,1.1,0,.5,0,.9,0,1.2s.3.6.5.8.5.3.8.4c.3,0,.6,0,.9,0,.3-.1.6-.3.8-.6.2-.3.4-.7.5-1.1,0-.5,0-.9,0-1.2-.1-.3-.3-.6-.5-.8-.2-.2-.5-.3-.8-.4Z"/>
      <path class="cls-2" d="M62,139.6l-1.7,5.8-1-.3.2-1.1c-.2.2-.4.4-.7.5-.3.1-.5.2-.9.2-.3,0-.7,0-1-.1l.3-1.2h.4c.2.2.5.2.7.2.2,0,.5,0,.7-.1s.4-.2.5-.4.3-.5.4-.9l.8-2.9,1.2.3Z"/>
      <path class="cls-2" d="M55.2,137.2c.5.2,1,.5,1.3.9.3.4.5.9.6,1.4s0,1.1-.2,1.7c-.2.6-.5,1.1-.9,1.4-.4.4-.9.6-1.4.7-.5,0-1.1,0-1.6-.2-.6-.2-1-.5-1.3-.9s-.5-.8-.5-1.3c0-.5,0-1,.2-1.5,0,0,0-.2,0-.2s0-.2.1-.3l4.6,1.8-.3.8-3.5-1.4c-.2.5-.1.9,0,1.3.2.4.5.7.9.8.3.1.6.2.9.1.3,0,.6-.2.8-.4s.5-.5.6-.9v-.3c.3-.4.3-.8.3-1.1,0-.3-.2-.6-.3-.9-.2-.2-.4-.4-.7-.5-.4-.1-.7-.2-1-.1-.3,0-.5.2-.8.4l-1.1-.4c.2-.3.5-.6.8-.7.3-.2.7-.3,1.1-.3.4,0,.8,0,1.3.2Z"/>
      <path class="cls-2" d="M48.3,134.4l-4.4,7.1-1.2-.7.6-6.3-5.4,3.3-1.2-.8,4.4-7.1,1,.6-3.3,5.4,4.9-3,.8.5-.5,5.7,3.3-5.3,1,.6Z"/>
      <path class="cls-2" d="M37.7,127c.4.4.8.8.9,1.3.2.5.2,1,.1,1.5-.1.5-.4,1-.8,1.5-.4.5-.9.8-1.4,1-.5.2-1,.3-1.5.2-.5,0-1-.3-1.4-.7-.4-.4-.8-.8-.9-1.3-.2-.5-.2-1-.1-1.5,0-.5.3-1,.8-1.5.4-.5.9-.8,1.4-1,.5-.2,1-.3,1.5-.2.5,0,1,.3,1.4.7ZM37,127.8c-.2-.2-.5-.3-.8-.4-.3,0-.6,0-1,.1-.3.1-.6.4-.9.7-.3.4-.5.7-.6,1.1,0,.3,0,.7,0,1s.3.5.5.7.5.3.8.4c.3,0,.6,0,1-.1.3-.1.6-.4.9-.8.3-.4.5-.7.6-1.1,0-.4,0-.7,0-1-.1-.3-.3-.5-.5-.7Z"/>
      <path class="cls-2" d="M34.2,124.1l-4.3,4.3-.8-.8.7-.9c-.3,0-.6.1-.9.1-.3,0-.6,0-.9-.2s-.6-.3-.8-.6l.9-.9.3.3c.2.2.4.3.6.4.2.1.4.2.6.2.2,0,.5,0,.7-.1.2-.1.5-.3.8-.6l2.1-2.1.9.8Z"/>
      <path class="cls-2" d="M29.4,118.8c.4.4.6.9.7,1.4,0,.5,0,1-.2,1.5s-.5.9-1,1.4c-.5.4-1,.7-1.5.8s-1,0-1.5,0c-.5-.2-.9-.5-1.3-.9s-.6-.9-.7-1.4c0-.5,0-1,.2-1.4.2-.5.5-.8.9-1.2,0,0,.1-.1.2-.2,0,0,.2-.1.2-.2l3.2,3.8-.6.5-2.4-2.9c-.4.3-.6.7-.6,1.1,0,.4.1.8.4,1.2.2.2.5.4.8.5.3.1.6.1.9,0s.6-.2,1-.5l.3-.2c.3-.3.6-.6.7-.9s.2-.6.1-.9c0-.3-.2-.6-.4-.8-.2-.3-.5-.5-.8-.6s-.6,0-.9,0l-.8-.9c.3-.2.7-.2,1.1-.2s.8,0,1.1.3c.4.2.7.4,1,.8Z"/>
      <path class="cls-2" d="M15.8,92.3l-8.2,1.6-1-5.2,1-.2.8,4,2.6-.5-.7-3.7.9-.2.7,3.7,2.7-.5-.8-4,1-.2,1,5.2Z"/>
      <path class="cls-2" d="M14.7,86.1l-3.2-1.8-2.8,2.4v-1.3c-.1,0,2.1-1.8,2.1-1.8l-2.5-1.4v-1.3c-.1,0,3.1,1.8,3.1,1.8l2.8-2.3v1.3c.1,0-2.1,1.8-2.1,1.8l2.5,1.4v1.3Z"/>
      <path class="cls-2" d="M16.8,79.3l-8.7-.2v-1.1s1-.1,1-.1c-.2-.1-.4-.3-.5-.5s-.3-.4-.4-.7-.1-.6-.1-.9c0-.6.2-1.1.4-1.5.3-.4.7-.8,1.1-1,.5-.2,1-.3,1.6-.3.6,0,1.1.1,1.6.4.5.3.8.6,1.1,1s.4,1,.4,1.5c0,.5-.1.9-.3,1.2-.2.4-.5.6-.8.8h3.6c0,0,0,1.3,0,1.3ZM13.3,76.2c0-.4,0-.7-.2-1-.2-.3-.4-.5-.7-.7-.3-.2-.7-.3-1.1-.3-.4,0-.8,0-1.1.2s-.6.4-.8.7c-.2.3-.3.6-.3,1,0,.4,0,.7.2,1,.2.3.4.5.7.7.3.2.7.2,1.1.3.4,0,.8,0,1.1-.2s.6-.4.8-.6c.2-.3.3-.6.3-1Z"/>
      <path class="cls-2" d="M14.5,71.6l-8.6-.9v-1.2c.1,0,8.7.9,8.7.9v1.2Z"/>
      <path class="cls-2" d="M15.4,65.9c-.1.6-.3,1.1-.7,1.5-.3.4-.8.7-1.3.9-.5.2-1.1.2-1.7,0-.6-.1-1.2-.3-1.6-.7-.4-.3-.7-.8-.9-1.3s-.2-1-.1-1.6c.1-.6.3-1,.7-1.4.3-.4.8-.7,1.3-.9.5-.2,1.1-.2,1.7,0,.6.1,1.1.3,1.6.7.4.3.7.8.9,1.3.2.5.2,1,.1,1.6ZM14.4,65.8c0-.3,0-.6,0-.9-.1-.3-.3-.6-.6-.8-.3-.2-.7-.4-1.1-.5-.5,0-.9,0-1.2,0-.3.1-.6.3-.8.5-.2.2-.3.5-.4.8,0,.3,0,.6,0,.9s.3.6.6.8.7.4,1.1.5c.5,0,.9,0,1.2,0,.3-.1.6-.3.8-.5.2-.2.3-.5.4-.8Z"/>
      <path class="cls-2" d="M16.2,61.6l-5.8-1.6.3-1,1.1.2c-.2-.2-.4-.4-.5-.7-.1-.3-.2-.5-.2-.9s0-.7.1-1l1.2.3v.4c-.2.2-.2.5-.2.7,0,.2,0,.4.1.7,0,.2.2.4.5.5.2.2.5.3.9.4l2.9.8-.3,1.2Z"/>
      <path class="cls-2" d="M18.6,54.7c-.2.5-.5,1-.9,1.3-.4.3-.9.5-1.4.6-.5,0-1.1,0-1.7-.2-.6-.2-1.1-.5-1.4-.9s-.6-.9-.7-1.4c0-.5,0-1.1.2-1.6s.5-1,.9-1.3.8-.5,1.3-.5c.5,0,1,0,1.5.2,0,0,.2,0,.2,0,0,0,.2,0,.3.1l-1.8,4.6-.8-.3,1.3-3.5c-.5-.2-.9-.1-1.3,0-.4.2-.7.5-.8.9-.1.3-.2.6-.1.9,0,.3.2.6.4.8.2.3.5.5.9.6h.3c.4.3.8.3,1.1.3.3,0,.6-.2.9-.4.2-.2.4-.4.5-.8.1-.4.2-.7.1-1,0-.3-.2-.5-.4-.8l.4-1.1c.3.2.6.5.7.8.2.3.3.7.3,1.1,0,.4,0,.8-.2,1.3Z"/>
      <path class="cls-2" d="M21.4,47.8l-7.2-4.4.7-1.2,6.3.5-3.3-5.4.7-1.2,7.2,4.4-.6,1-5.4-3.3,3,4.9-.5.8-5.7-.5,5.4,3.3-.6,1Z"/>
      <path class="cls-2" d="M28.7,37.2c-.4.4-.8.8-1.3.9-.5.2-1,.2-1.5.1-.5-.1-1-.4-1.5-.7-.5-.4-.8-.9-1.1-1.4-.2-.5-.3-1-.2-1.5,0-.5.3-1,.7-1.4.4-.4.8-.8,1.3-.9s1-.2,1.5-.1c.5,0,1,.3,1.5.7.5.4.8.9,1,1.4.2.5.3,1,.2,1.5s-.3,1-.7,1.4ZM27.9,36.5c.2-.2.3-.5.4-.8,0-.3,0-.6-.1-1-.1-.3-.4-.6-.8-.9-.4-.3-.7-.5-1.1-.6-.3,0-.7,0-1,0-.3.1-.5.3-.7.5s-.3.5-.4.8c0,.3,0,.6.1,1s.4.6.8.9c.4.3.7.5,1.1.6s.7,0,1,0c.3-.1.5-.3.7-.5Z"/>
      <path class="cls-2" d="M31.6,33.7l-4.3-4.2.8-.8.9.7c0-.3-.1-.6-.1-.9,0-.3,0-.6.2-.9.1-.3.3-.6.6-.8l.9.9-.3.3c-.2.2-.3.4-.4.6s-.2.4-.2.6c0,.2,0,.5.1.7.1.2.3.5.6.8l2.1,2.1-.8.9Z"/>
      <path class="cls-2" d="M36.9,28.9c-.4.4-.9.6-1.4.7-.5,0-1,0-1.5-.2-.5-.2-1-.5-1.4-1s-.7-1-.8-1.5c-.1-.5-.1-1,0-1.5.2-.5.5-.9.9-1.3s.9-.6,1.4-.7c.5,0,1,0,1.4.2.5.2.9.5,1.2.9,0,0,.1.1.2.2,0,0,.1.2.2.2l-3.7,3.2-.5-.6,2.9-2.4c-.3-.4-.7-.6-1.1-.6s-.8.1-1.2.4c-.2.2-.4.5-.5.8-.1.3-.1.6,0,.9,0,.3.2.6.5,1l.2.3c.3.3.6.6.9.7.3.1.6.2.9.1.3,0,.6-.2.8-.4.3-.2.5-.5.6-.8,0-.3,0-.6,0-.9l.9-.8c.2.3.2.7.2,1.1s0,.8-.2,1.1c-.2.4-.4.7-.8,1Z"/>
    </g>
  </g>
</svg>